<svg width="517" height="641" viewBox="0 0 517 641" fill="none" xmlns="http://www.w3.org/2000/svg">
    <path d="M257.723 640.747C400.06 640.747 515.446 633.775 515.446 625.175C515.446 616.575 400.06 609.603 257.723 609.603C115.387 609.603 0 616.575 0 625.175C0 633.775 115.387 640.747 257.723 640.747Z" fill="#CED3E6"/>
    <path d="M241.655 191.517L267.687 286.082L258.399 275.459C261.833 277.28 265.819 278.676 270.214 279.648C274.609 280.638 279.413 281.204 284.431 281.451C289.449 281.716 294.68 281.663 300.036 281.451C305.392 281.222 310.855 280.833 316.406 280.355H316.442C324.627 279.666 331.834 285.693 332.527 293.824C333.186 301.584 327.652 308.442 320.054 309.68C314.325 310.581 308.506 311.447 302.545 312.136C296.567 312.826 290.446 313.338 284.111 313.48C277.776 313.621 271.211 313.374 264.413 312.402C257.634 311.429 250.606 309.662 243.737 306.728C239.342 304.836 236.21 301.266 234.787 297.077L234.449 296.087L203.221 203.094C199.716 192.648 205.392 181.336 215.926 177.853C226.442 174.371 237.83 180.01 241.335 190.474C241.442 190.792 241.566 191.181 241.655 191.517Z" fill="#EA9B7A"/>
    <path d="M251.673 534.322C251.282 534.322 250.89 534.251 250.499 534.11L114.128 485.272C112.349 484.635 111.424 482.673 112.064 480.906C112.705 479.138 114.68 478.201 116.459 478.855L252.83 527.694C254.609 528.33 255.552 530.292 254.894 532.059C254.414 533.456 253.079 534.322 251.673 534.322Z" fill="#C77E2E"/>
    <path d="M109.627 534.322C108.221 534.322 106.904 533.456 106.388 532.059C105.748 530.292 106.673 528.33 108.452 527.676L246.442 478.025C248.221 477.388 250.196 478.307 250.855 480.075C251.495 481.842 250.57 483.804 248.791 484.458L110.801 534.11C110.41 534.251 110.018 534.322 109.627 534.322Z" fill="#C77E2E"/>
    <path d="M263.809 621.605C260.908 621.605 258.382 619.466 257.972 616.532L233.346 433.817H130.267L106.015 616.532C105.588 619.731 102.634 621.994 99.4132 621.57C96.1926 621.146 93.915 618.211 94.342 615.012L119.271 427.242C119.662 424.325 122.153 422.151 125.107 422.151H238.506C241.46 422.151 243.951 424.326 244.342 427.224L269.663 614.994C270.09 618.194 267.83 621.146 264.609 621.57C264.325 621.587 264.076 621.605 263.809 621.605Z" fill="#FAAF3A"/>
    <path d="M205.659 427.984H132.011C108.684 427.984 83.7013 415.293 80.107 392.403C75.3205 361.77 74.1283 332.128 75.4629 304.907C76.9753 274.134 91.7796 245.499 116.121 226.409C116.121 226.409 130.837 290.095 112.331 377.997C119.413 411.369 205.659 427.984 205.659 427.984Z" fill="#FAAF3A"/>
    <path d="M190.303 54.4765C190.303 54.4765 181.549 33.513 158.364 37.4723C142.171 40.2298 135.267 60.2741 136.21 91.2421C137.598 136.298 122.26 163.448 122.26 163.448L142.616 168.044C142.634 168.026 194.467 90.7826 190.303 54.4765Z" fill="#39393B"/>
    <path d="M376.033 543.319H343.133C343.133 543.319 335.517 507.048 332.973 486.721C330.41 466.376 329.094 418.174 329.094 418.174C329.094 418.174 302.884 426.641 248.008 423.441C126.424 416.389 172.527 327.656 172.527 327.656C176.638 333.295 201.798 329.388 219.004 332.075C271.798 337.113 317.563 357.687 345.037 369.46C351.656 372.288 357.528 375.293 362.688 378.456C369.307 382.504 373.453 394.824 375.962 410.998C383.453 459.624 376.033 543.319 376.033 543.319Z" fill="#39393B"/>
    <path d="M347.225 525.838C346.674 525.838 346.193 525.449 346.069 524.901C341.318 501.569 339.734 472.528 338.453 449.196C337.385 429.841 336.389 411.564 333.88 409.372C331.852 407.587 323.435 408.983 312.795 410.733C291.602 414.233 259.574 419.5 224.271 411.352C205.036 406.897 190.89 397.618 182.243 383.76C167.314 359.862 174.129 330.22 174.2 329.919C174.342 329.283 174.983 328.894 175.623 329.053C176.264 329.195 176.656 329.831 176.495 330.467C176.424 330.75 169.858 359.473 184.271 382.54C192.581 395.85 206.229 404.776 224.823 409.072C259.681 417.132 291.425 411.9 312.439 408.435C325.019 406.367 332.617 405.112 335.482 407.622C338.578 410.344 339.45 423.707 340.837 449.072C342.119 472.333 343.702 501.269 348.418 524.442C348.542 525.078 348.133 525.697 347.492 525.82C347.368 525.838 347.297 525.838 347.225 525.838Z" fill="#585859"/>
    <path d="M376.656 526.456H376.638L340.054 525.678C339.396 525.66 338.88 525.13 338.898 524.476C338.916 523.822 339.45 523.309 340.108 523.327L376.692 524.105C377.35 524.123 377.866 524.653 377.848 525.307C377.83 525.943 377.297 526.456 376.656 526.456Z" fill="#585859"/>
    <path d="M375.126 585.175H351.905L347.439 558.131L344.983 543.319H373.827L374.29 558.131L375.126 585.175Z" fill="#EA9B7A"/>
    <path d="M375.126 585.175H351.905L348.578 565.043L347.439 558.131H374.29L374.521 565.29L375.126 585.175Z" fill="#FAAF3A"/>
    <path d="M374.521 565.29L348.578 565.043L347.439 558.131H374.29L374.521 565.29Z" fill="#C77E2E"/>
    <path d="M432.421 621.605H344.61C343.951 620.421 343.596 618.759 343.453 616.762C342.902 609.373 345.268 597.601 346.425 590.177C346.567 589.311 346.692 588.498 346.781 587.774C346.941 586.536 347.048 585.493 347.048 584.733C347.048 578.67 352.439 579.713 352.439 579.713C361.318 588.375 371.389 575.383 377.261 579.643C377.261 579.643 377.492 579.819 378.044 580.226C378.542 580.615 379.29 581.216 380.322 582.082C381.816 583.319 383.916 585.122 386.763 587.667C393.738 593.907 405.589 598.008 415.678 602.197C416.959 602.727 418.151 603.275 419.272 603.806C420.108 604.212 420.909 604.619 421.656 605.007C429.913 609.426 432.528 613.669 433.133 616.744C433.72 619.714 432.421 621.605 432.421 621.605Z" fill="#0875F7"/>
    <path d="M421.674 605.025C419.414 606.81 414.379 610.399 410.339 610.399C410.161 610.399 409.984 610.399 409.806 610.381C406.959 610.151 396.496 605.043 387.973 600.394C383.097 597.725 378.631 595.109 375.428 593.006C370.179 589.559 369.254 588.251 369.058 587.332C368.293 583.885 374.023 581.499 378.044 580.244C378.542 580.633 379.289 581.234 380.322 582.1C375.339 583.443 371.229 585.564 371.425 586.784C371.923 587.809 377.119 591.733 389.539 598.503C399.023 603.664 408.008 607.818 410.001 607.995C412.706 608.207 416.674 605.768 419.272 603.841C420.126 604.23 420.927 604.636 421.674 605.025Z" fill="#084FC7"/>
    <path d="M432.421 621.605H344.61C343.951 620.421 343.595 618.759 343.453 616.762H433.151C433.72 619.714 432.421 621.605 432.421 621.605Z" fill="#084FC7"/>
    <path d="M353.56 621.605H350.944C353.542 618.653 355.98 614.11 355.66 607.641C355.233 599.015 350.037 593.218 346.407 590.177C346.549 589.311 346.674 588.498 346.763 587.773C350.66 590.725 357.226 597.212 357.742 607.535C358.08 613.722 356.033 618.335 353.56 621.605Z" fill="#084FC7"/>
    <path d="M385.286 592.829C384.646 592.829 384.041 592.387 383.88 591.733C383.685 590.955 384.165 590.178 384.93 589.983L390.411 588.622C391.194 588.428 391.977 588.905 392.172 589.665C392.368 590.443 391.888 591.22 391.122 591.415L385.642 592.776C385.517 592.811 385.393 592.829 385.286 592.829Z" fill="white"/>
    <path d="M379.841 588.304C379.2 588.304 378.596 587.862 378.435 587.208C378.24 586.43 378.72 585.653 379.485 585.458L384.966 584.097C385.749 583.903 386.531 584.38 386.727 585.14C386.923 585.918 386.443 586.695 385.677 586.872L380.197 588.233C380.072 588.286 379.948 588.304 379.841 588.304Z" fill="white"/>
    <path d="M390.767 595.993C390.126 595.993 389.521 595.551 389.361 594.897C389.165 594.119 389.646 593.342 390.411 593.165L395.891 591.804C396.674 591.609 397.457 592.087 397.653 592.847C397.848 593.624 397.368 594.402 396.603 594.597L391.122 595.958C390.998 595.993 390.891 595.993 390.767 595.993Z" fill="white"/>
    <path d="M396.247 599.051C395.588 599.051 395.001 598.609 394.841 597.955C394.645 597.177 395.126 596.399 395.891 596.205L401.371 594.844C402.154 594.649 402.937 595.127 403.133 595.887C403.329 596.664 402.848 597.442 402.083 597.619L396.603 598.98C396.496 599.033 396.371 599.051 396.247 599.051Z" fill="white"/>
    <path d="M402.243 601.861C401.603 601.861 400.998 601.419 400.838 600.765C400.642 599.987 401.122 599.21 401.888 599.033L407.368 597.672C408.151 597.477 408.934 597.955 409.13 598.715C409.325 599.492 408.845 600.27 408.08 600.465L402.599 601.826C402.475 601.843 402.35 601.861 402.243 601.861Z" fill="white"/>
    <path d="M408.72 604.265C408.08 604.265 407.475 603.823 407.315 603.169C407.119 602.391 407.599 601.614 408.364 601.419L413.845 600.058C414.628 599.864 415.411 600.341 415.606 601.101C415.802 601.879 415.322 602.656 414.556 602.833L409.076 604.194C408.952 604.247 408.845 604.265 408.72 604.265Z" fill="white"/>
    <path d="M111.637 299.516C111.637 299.516 110.605 306.569 120.107 308.548L219.182 311.836C219.182 311.836 225.873 308.495 224.663 300.258C224.663 300.241 182.83 276.891 111.637 299.516Z" fill="#084FC7"/>
    <path d="M220.534 332.057C169.111 360.162 112.954 337.537 112.954 337.537C115.694 330.095 117.741 321.699 119.217 314.063C120.926 305.172 121.887 297.324 122.331 293.206C144.2 292.021 197.83 289.741 218.844 294.691L219.004 303.051L220.534 332.057Z" fill="#EA9B7A"/>
    <path d="M182.545 318.588C182.171 321.222 180.961 323.237 179.876 323.078C178.773 322.919 178.203 320.657 178.577 318.023C178.951 315.389 180.161 313.374 181.246 313.533C182.349 313.692 182.919 315.955 182.545 318.588Z" fill="#D96C63"/>
    <path d="M218.986 303.051C197.082 301.726 154.004 301.266 119.2 314.046C120.908 305.155 121.869 297.307 122.314 293.188C144.182 292.004 197.812 289.724 218.826 294.673L218.986 303.051Z" fill="#D96C63"/>
    <path d="M243.417 262.626C243.204 263.263 242.955 263.846 242.67 264.394C242.563 264.606 242.456 264.818 242.35 265.013C239.592 270.085 235.339 274.487 231.762 277.615C231.015 278.269 230.303 278.853 229.645 279.383C228.328 280.444 227.207 281.274 226.442 281.822C225.73 282.317 225.321 282.582 225.321 282.582C225.321 282.635 225.321 282.671 225.303 282.741C225.268 283.113 225.232 283.519 225.197 283.943C225.072 285.552 224.965 287.461 224.894 289.653C224.823 291.403 224.769 293.329 224.734 295.415C224.716 296.953 224.68 298.561 224.663 300.223C195.606 287.319 135.748 295.468 111.637 299.498C112.082 297.43 112.474 295.397 112.847 293.418C114.556 284.279 115.516 276.06 115.89 268.689C116.46 257.73 115.499 241.256 113.15 224.234C113.008 223.121 112.847 222.025 112.687 220.929C112.581 220.204 112.474 219.497 112.349 218.773C111.531 213.435 110.57 208.079 109.484 202.882C104.734 180.222 108.061 156.448 131.193 153.637C132.865 153.425 134.52 153.248 136.139 153.072C147.029 151.923 155.997 151.516 158.488 151.428C158.951 151.41 159.182 151.41 159.182 151.41L203.88 164.313L208.132 165.533C210.57 166.311 212.83 167.071 214.93 167.813C215.819 168.131 216.691 168.45 217.51 168.75C219.68 169.563 221.638 170.341 223.435 171.136C227.011 172.71 229.841 174.247 232.083 175.82C241.887 182.732 240.374 190.544 240.125 205.975C240.125 206.046 240.125 206.117 240.125 206.187C240.125 206.382 240.125 206.576 240.125 206.788C240.125 206.877 240.125 206.965 240.125 207.054C240.125 207.69 240.125 208.309 240.125 208.945C240.143 210.942 240.214 212.922 240.339 214.902C240.499 217.818 240.766 220.717 241.086 223.545C241.211 224.676 241.335 225.808 241.478 226.939C241.602 227.999 241.745 229.042 241.887 230.085C243.631 243.589 245.855 255.432 243.417 262.626Z" fill="#0875F7"/>
    <path d="M240.107 206.188C240.107 206.382 240.107 206.577 240.107 206.789C240.107 206.877 240.107 206.966 240.107 207.054C240.107 207.69 240.107 208.309 240.107 208.945L230.712 214.796C230.428 214.973 230.107 215.026 229.787 214.973C229.431 214.92 229.111 214.708 228.897 214.389C228.506 213.771 228.702 212.975 229.307 212.586L239.271 206.382C239.52 206.223 239.823 206.17 240.107 206.188Z" fill="#084FC7"/>
    <path d="M178.186 256.175C177.83 256.175 177.474 256.034 177.207 255.751C176.726 255.22 176.762 254.39 177.296 253.912L186.033 246.1C186.566 245.622 187.403 245.658 187.883 246.188C188.364 246.718 188.328 247.549 187.794 248.026L179.057 255.839C178.808 256.051 178.488 256.175 178.186 256.175Z" fill="#084FC7"/>
    <path d="M241.851 230.086L235.873 235.441C235.624 235.671 235.303 235.777 235.001 235.777C234.645 235.777 234.289 235.636 234.022 235.353C233.542 234.823 233.577 233.992 234.111 233.515L241.442 226.957C241.567 228 241.709 229.043 241.851 230.086Z" fill="#084FC7"/>
    <path d="M160.463 224.747C160.267 224.446 160.179 224.075 160.267 223.704C160.428 222.997 161.139 222.573 161.851 222.732L173.292 225.418C174.004 225.577 174.431 226.284 174.271 226.991C174.111 227.698 173.399 228.123 172.687 227.964L161.246 225.277C160.908 225.206 160.641 225.012 160.463 224.747Z" fill="#084FC7"/>
    <path d="M119.627 247.054C119.271 247.054 118.915 246.912 118.648 246.63C118.168 246.099 118.203 245.269 118.737 244.791L127.474 236.979C128.008 236.501 128.844 236.537 129.324 237.067C129.805 237.597 129.769 238.428 129.235 238.905L120.499 246.718C120.25 246.948 119.947 247.054 119.627 247.054Z" fill="#084FC7"/>
    <path d="M221.335 245.199C221.442 244.863 221.709 244.562 222.047 244.421C222.705 244.138 223.488 244.439 223.773 245.093L228.47 255.804C228.755 256.458 228.453 257.236 227.794 257.519C227.136 257.801 226.353 257.501 226.068 256.847L221.371 246.135C221.246 245.817 221.246 245.481 221.335 245.199Z" fill="#084FC7"/>
    <path d="M243.417 262.627C243.203 263.263 242.954 263.846 242.67 264.394C242.563 264.606 242.456 264.819 242.349 265.013L235.961 263.016C235.641 262.91 235.392 262.697 235.232 262.432C235.054 262.132 234.983 261.743 235.107 261.389C235.321 260.7 236.068 260.329 236.744 260.541L243.417 262.627Z" fill="#084FC7"/>
    <path d="M207.332 263.563C207.687 263.528 208.061 263.634 208.346 263.899C208.88 264.376 208.915 265.207 208.435 265.737L200.534 274.381C200.054 274.911 199.218 274.946 198.684 274.469C198.15 273.992 198.114 273.161 198.595 272.631L206.495 263.987C206.727 263.74 207.029 263.599 207.332 263.563Z" fill="#084FC7"/>
    <path d="M202.688 243.625C202.332 243.572 202.011 243.36 201.798 243.042C201.406 242.441 201.602 241.628 202.207 241.239L212.172 235.035C212.777 234.646 213.595 234.84 213.986 235.441C214.378 236.042 214.182 236.855 213.577 237.244L203.613 243.448C203.328 243.625 202.99 243.678 202.688 243.625Z" fill="#084FC7"/>
    <path d="M209.04 206.011C209.271 206.276 209.413 206.63 209.36 207.019C209.289 207.726 208.63 208.256 207.919 208.168L196.228 206.895C195.517 206.824 194.983 206.17 195.072 205.463C195.143 204.756 195.801 204.226 196.513 204.314L208.203 205.587C208.524 205.622 208.826 205.781 209.04 206.011Z" fill="#084FC7"/>
    <path d="M192.047 180.823C192.136 180.469 192.367 180.169 192.705 179.992C193.346 179.656 194.147 179.886 194.485 180.522L200.054 190.809C200.392 191.446 200.161 192.241 199.52 192.577C198.88 192.913 198.079 192.683 197.741 192.047L192.171 181.759C191.994 181.459 191.958 181.123 192.047 180.823Z" fill="#084FC7"/>
    <path d="M231.78 277.633C231.033 278.287 230.321 278.871 229.662 279.401L228.132 275.512C228.008 275.194 228.008 274.876 228.132 274.575C228.257 274.24 228.524 273.957 228.88 273.815C229.556 273.55 230.321 273.886 230.588 274.558L231.78 277.633Z" fill="#084FC7"/>
    <path d="M124.306 257.836C124.129 257.518 124.093 257.147 124.235 256.776C124.484 256.104 125.232 255.751 125.908 255.998L136.976 259.957C137.652 260.205 138.008 260.947 137.758 261.619C137.509 262.291 136.762 262.644 136.086 262.397L125.018 258.437C124.698 258.349 124.449 258.119 124.306 257.836Z" fill="#084FC7"/>
    <path d="M129.716 272.702C130.072 272.702 130.427 272.861 130.694 273.144C131.175 273.674 131.121 274.505 130.588 274.982L121.78 282.724C121.246 283.202 120.41 283.149 119.929 282.618C119.449 282.088 119.502 281.257 120.036 280.78L128.844 273.038C129.093 272.808 129.413 272.702 129.716 272.702Z" fill="#084FC7"/>
    <path d="M145.677 284.986C145.89 285.269 146.015 285.64 145.943 286.011C145.819 286.718 145.143 287.196 144.431 287.072L132.847 285.11C132.136 284.986 131.655 284.314 131.78 283.607C131.904 282.9 132.58 282.423 133.292 282.547L144.876 284.509C145.196 284.562 145.481 284.739 145.677 284.986Z" fill="#084FC7"/>
    <path d="M155.374 175.644C155.285 175.308 155.321 174.92 155.534 174.601C155.926 174 156.744 173.824 157.349 174.213L167.225 180.54C167.83 180.929 168.008 181.742 167.616 182.343C167.225 182.944 166.406 183.121 165.801 182.732L155.926 176.404C155.641 176.21 155.445 175.945 155.374 175.644Z" fill="#084FC7"/>
    <path d="M222.776 183.103C223.097 182.926 223.47 182.891 223.844 183.015C224.52 183.262 224.876 184.005 224.645 184.676L220.712 195.688C220.463 196.36 219.716 196.713 219.04 196.484C218.364 196.236 218.008 195.494 218.239 194.822L222.171 183.81C222.278 183.51 222.509 183.262 222.776 183.103Z" fill="#084FC7"/>
    <path d="M217.492 168.768L211.424 176.51C210.979 177.075 210.161 177.181 209.591 176.74C209.022 176.298 208.915 175.485 209.36 174.919L214.912 167.849C215.801 168.131 216.673 168.45 217.492 168.768Z" fill="#084FC7"/>
    <path d="M158.114 275.583C158.239 275.954 158.559 276.219 158.915 276.29C159.093 276.326 159.289 276.326 159.467 276.255C159.662 276.184 178.684 270.068 198.684 278.305C208.844 282.494 217.883 284.085 225.196 283.944C225.232 283.52 225.267 283.131 225.303 282.742C225.303 282.689 225.321 282.636 225.321 282.6C225.321 282.6 225.73 282.335 226.442 281.84C219.253 282.194 210.054 280.674 199.502 276.343C178.737 267.788 159.591 273.975 158.79 274.24C158.239 274.434 157.936 275.035 158.114 275.583Z" fill="#084FC7"/>
    <path d="M203.862 164.313C201.353 168.167 196.193 172.533 185.73 171.79C171.299 170.747 161.798 157.066 158.488 151.445C158.933 151.428 159.182 151.428 159.182 151.428L203.862 164.313Z" fill="#084FC7"/>
    <path d="M188.524 189.696C188.951 189.785 189.378 189.838 189.805 189.873C193.791 190.191 197.029 189.042 199.413 186.462C206.353 178.932 203.506 161.751 203.381 161.026C203.274 160.443 202.723 160.054 202.153 160.16C201.566 160.266 201.175 160.814 201.282 161.38C201.317 161.556 204.075 178.26 197.847 185.03C195.908 187.133 193.328 188.035 190 187.77C176.015 186.656 160.338 151.357 160.178 151.004C159.947 150.474 159.306 150.226 158.773 150.456C158.239 150.686 157.99 151.322 158.221 151.852C158.826 153.32 173.701 186.709 188.524 189.696Z" fill="white"/>
    <path d="M232.082 175.82C231.157 186.002 233.684 202.811 240.303 214.902C240.143 212.303 240.072 209.669 240.107 207.053C240.107 206.965 240.107 206.877 240.107 206.788C240.107 206.523 240.125 206.258 240.125 205.993C240.356 190.562 241.869 182.732 232.082 175.82Z" fill="#EA9B7A"/>
    <path d="M149.858 193.744C144.734 213.4 125.979 229.166 113.168 224.253C113.008 223.157 112.865 222.043 112.705 220.947C112.598 220.223 112.492 219.516 112.367 218.791C111.548 213.453 110.588 208.097 109.502 202.9C104.751 180.24 108.097 156.466 131.21 153.655C132.883 153.443 134.538 153.267 136.157 153.09C147.705 157.986 155.766 171.119 149.858 193.744Z" fill="#EA9B7A"/>
    <path d="M152.492 178.755L182.527 287.885L171.815 275.618C175.783 277.704 180.374 279.33 185.463 280.461C190.534 281.592 196.086 282.246 201.869 282.547C207.67 282.847 213.702 282.794 219.876 282.547C226.05 282.299 232.367 281.84 238.773 281.292H238.809C248.257 280.497 256.567 287.443 257.367 296.829C258.132 305.773 251.744 313.709 242.954 315.123C236.353 316.166 229.627 317.156 222.741 317.952C215.855 318.747 208.791 319.33 201.46 319.507C194.146 319.666 186.566 319.401 178.737 318.27C170.926 317.138 162.812 315.123 154.876 311.712C149.805 309.538 146.193 305.402 144.556 300.576L144.182 299.445L108.132 192.118C104.075 180.063 110.641 167.018 122.776 162.988C134.911 158.958 148.043 165.48 152.1 177.535C152.26 177.924 152.385 178.383 152.492 178.755Z" fill="#EA9B7A"/>
    <path d="M165.944 284.403C165.641 284.403 165.339 284.244 165.178 283.961C164.929 283.537 165.089 283.006 165.516 282.759C165.801 282.6 172.367 278.923 179.235 278.393C179.734 278.358 180.161 278.711 180.196 279.206C180.232 279.701 179.876 280.125 179.378 280.161C172.919 280.656 166.46 284.261 166.406 284.297C166.246 284.367 166.086 284.403 165.944 284.403Z" fill="#D96C63"/>
    <path d="M176.869 280.461C176.709 280.461 176.549 280.426 176.406 280.338C172.26 277.845 167.242 277.456 167.189 277.456C166.691 277.421 166.335 276.997 166.371 276.52C166.406 276.025 166.815 275.671 167.314 275.707C167.527 275.724 172.812 276.113 177.314 278.835C177.741 279.083 177.865 279.631 177.616 280.055C177.456 280.302 177.154 280.461 176.869 280.461Z" fill="#D96C63"/>
    <path d="M203.648 222.945C216.94 225.614 222.759 211.968 222.812 211.827C223.043 211.279 222.776 210.66 222.225 210.448C221.673 210.218 221.05 210.483 220.837 211.031C220.623 211.544 215.606 223.192 204.075 220.877C191.958 218.437 169.36 194.769 169.146 194.522C168.737 194.098 168.061 194.08 167.634 194.487C167.207 194.893 167.189 195.565 167.598 195.989C168.524 196.961 190.89 220.364 203.648 222.945Z" fill="#084FC7"/>
    <path d="M182.758 136.987C182.758 136.987 161.424 132.992 155.41 111.604C149.68 91.2417 154.093 80.6716 160.054 69.6772C164.538 61.3873 178.773 50.1985 198.719 54.2109C218.862 58.2587 233.933 68.546 236.157 85.0022C240.303 115.793 215.303 153.355 182.758 136.987Z" fill="#39393B"/>
    <path d="M156.406 114.91C156.015 114.91 155.641 114.715 155.445 114.344C155.054 113.672 146.086 97.6403 153.541 76.5354C158.203 63.3493 167.367 57.4632 174.253 54.8296C181.691 51.9837 187.936 52.2666 188.203 52.2666C188.808 52.3019 189.289 52.8145 189.253 53.4331C189.218 54.0341 188.719 54.5114 188.097 54.476C188.043 54.476 181.976 54.2286 174.965 56.9153C165.641 60.5035 159.146 67.344 155.641 77.2601C148.541 97.3752 157.296 113.089 157.385 113.248C157.687 113.778 157.509 114.45 156.976 114.751C156.78 114.857 156.602 114.91 156.406 114.91Z" fill="#FAAF3A"/>
    <path d="M224.129 115.246C224.129 115.246 231.068 109.801 232.901 117.013C234.734 124.225 229.573 137.04 221.495 133.151L224.129 115.246Z" fill="#D96C63"/>
    <path d="M217.349 128.503C213.897 129.634 210.855 132.674 210.072 136.439C208.933 142.06 212.598 147.54 218.239 148.689C223.897 149.82 229.413 146.179 230.57 140.575C231.424 136.369 229.591 132.233 226.228 129.952C225.107 129.175 223.808 128.627 222.385 128.344C222.349 128.344 222.314 128.326 222.278 128.326C222.082 129.033 222.154 129.599 222.563 130.041C223.702 130.341 224.734 130.854 225.641 131.525C228.257 133.505 229.662 136.846 228.969 140.257C228.008 144.994 223.328 148.07 218.559 147.116C213.791 146.161 210.694 141.512 211.655 136.775C212.367 133.328 214.929 130.889 218.15 130.111L217.349 128.503Z" fill="#FAAF3A"/>
    <path d="M203.097 146.16L200.196 164.225C200.196 164.225 186.584 178.03 161.726 153.266C168.399 148.335 170.943 136.881 170.16 129.492C170.16 129.492 172.118 130.659 175.143 133.381C175.73 133.911 176.495 134.318 177.225 134.83C183.79 139.249 193.862 145.029 203.097 146.16Z" fill="#EA9B7A"/>
    <path d="M203.097 146.161L201.727 154.716C194.271 151.41 181.086 144.358 175.143 133.363C175.783 133.823 176.495 134.3 177.225 134.813C183.791 139.249 193.862 145.029 203.097 146.161Z" fill="#39393B"/>
    <path d="M230.855 110.898C230.463 112.807 230.107 114.627 229.734 116.36C229.342 118.233 228.969 120.001 228.595 121.662C225.837 134.159 223.577 140.858 219.912 143.368C201.353 156.042 171.157 130.376 170.178 129.546C170.161 129.528 170.161 129.528 170.161 129.528C170.143 128.061 170.143 126.594 170.161 125.162C170.392 113.001 172.474 102.077 175.783 91.9846C177.438 80.9549 186.05 72.117 197.136 70.4555C208.63 68.7409 217.278 75.3517 222.687 78.2682C230.855 82.6871 234.058 94.9718 230.855 110.898Z" fill="#EA9B7A"/>
    <path d="M176.424 80.6364C176.424 80.6364 189.413 55.8196 215.321 62.7485C241.228 69.6775 242.599 81.6263 243.061 87.6007C243.524 93.5751 229.645 82.9873 229.645 82.9873C229.645 82.9873 229.164 94.9362 224.538 91.2596C218.862 86.7346 212.527 76.9952 212.527 76.9952C212.527 76.9952 197.1 92.055 182.438 87.9896C174.093 85.6917 176.424 80.6364 176.424 80.6364Z" fill="#39393B"/>
    <path d="M208.239 135.237C204.876 135.237 202.563 132.921 202.456 132.798C202.1 132.426 202.1 131.843 202.474 131.49C202.848 131.136 203.417 131.136 203.773 131.507C203.897 131.631 206.566 134.265 210.09 133.063C210.57 132.904 211.104 133.151 211.264 133.628C211.424 134.106 211.175 134.636 210.695 134.795C209.84 135.113 209.022 135.237 208.239 135.237Z" fill="#D96C63"/>
    <path d="M200.499 120.213C200.499 120.213 212.99 123.889 219.467 123.889C219.467 123.889 216.228 133.081 206.976 129.864C199.769 127.354 200.499 120.213 200.499 120.213Z" fill="white"/>
    <path d="M223.684 94.3708C223.684 94.3708 220.445 94.035 220.961 97.1636C221.495 100.292 228.524 98.3832 232.011 104.64C232.011 104.64 235.374 98.0828 223.684 94.3708Z" fill="#39393B"/>
    <path d="M209.253 91.472C209.253 91.472 212.367 92.4265 210.659 95.0955C208.951 97.7646 203.221 93.2926 197.563 97.7115C197.563 97.7115 197.047 90.3761 209.253 91.472Z" fill="#39393B"/>
    <path d="M203.63 113.867C203.328 115.334 200.036 115.917 196.246 115.157C192.474 114.397 189.662 112.594 189.965 111.109C190.267 109.642 193.559 109.059 197.349 109.819C201.122 110.579 203.933 112.4 203.63 113.867Z" fill="#D96C63"/>
    <path d="M240.499 114.84L230.41 113.125C230.356 113.549 230.25 113.973 230.161 114.38C230.143 114.451 230.125 114.521 230.09 114.592L240.25 116.307C240.659 116.377 241.05 116.095 241.122 115.688C241.193 115.299 240.926 114.91 240.499 114.84Z" fill="white"/>
    <path d="M213.559 106.284C213.559 105.771 213.541 105.259 213.47 104.764C213.132 102.042 211.922 99.5319 210.072 97.5876C208.363 95.8023 206.139 94.4943 203.559 93.9287C203.524 93.911 203.47 93.911 203.435 93.8933C197.527 92.6914 191.709 95.7669 189.306 100.999C189.093 101.459 188.915 101.918 188.755 102.395C188.612 102.82 188.506 103.261 188.399 103.703C187.723 106.991 188.381 110.243 190.036 112.895C190.605 113.796 191.282 114.627 192.047 115.352C193.719 116.96 195.837 118.127 198.274 118.622C202.385 119.47 206.424 118.233 209.324 115.652C211.282 113.92 212.723 111.551 213.292 108.812C213.292 108.794 213.292 108.794 213.292 108.776C213.47 107.946 213.559 107.115 213.559 106.284ZM198.595 117.155C198.524 117.137 198.47 117.137 198.417 117.119C195.232 116.412 192.652 114.397 191.139 111.764C189.84 109.483 189.324 106.761 189.894 104.004C190.018 103.438 190.178 102.89 190.374 102.36C190.392 102.325 190.41 102.289 190.41 102.254C191.993 98.1709 195.854 95.3958 200.196 95.1483C201.157 95.0953 202.136 95.1483 203.132 95.3604C205.267 95.8023 207.118 96.8098 208.595 98.2062C211.299 100.769 212.652 104.623 211.851 108.511C210.57 114.521 204.645 118.41 198.595 117.155Z" fill="white"/>
    <path d="M236.175 101.123C235.837 100.946 235.481 100.787 235.107 100.628C234.68 100.451 234.235 100.31 233.791 100.168C233.47 100.08 233.168 99.9913 232.83 99.9383C232.225 99.8146 231.638 99.7439 231.05 99.7085C230.339 99.6555 229.627 99.6732 228.933 99.7616C226.993 99.9737 225.161 100.61 223.541 101.618C221.762 102.713 220.25 104.251 219.218 106.107C218.933 106.584 218.702 107.079 218.488 107.574C218.47 107.61 218.47 107.627 218.452 107.663C218.186 108.334 217.972 109.041 217.812 109.766C216.798 114.645 218.773 119.452 222.492 122.316C223.702 123.253 225.089 123.977 226.62 124.419C226.851 124.49 227.082 124.561 227.331 124.596C227.456 124.631 227.563 124.649 227.687 124.684C228.915 124.932 230.143 125.003 231.335 124.897C231.531 124.879 231.727 124.861 231.904 124.844C232.42 124.773 232.936 124.684 233.453 124.543C234.396 124.296 235.321 123.942 236.175 123.5C239.431 121.803 241.922 118.728 242.723 114.874C243.88 109.218 241.05 103.668 236.175 101.123ZM241.228 114.556C241.175 114.804 241.122 115.033 241.05 115.263C240.961 115.599 240.855 115.917 240.73 116.253C239.84 118.604 238.203 120.513 236.139 121.768C235.392 122.228 234.573 122.599 233.719 122.882C233.186 123.058 232.652 123.182 232.082 123.27C231.922 123.306 231.762 123.323 231.602 123.341C230.428 123.482 229.2 123.447 227.972 123.2C227.865 123.182 227.741 123.147 227.634 123.129C227.563 123.111 227.492 123.094 227.438 123.076C225.641 122.616 224.04 121.733 222.741 120.548C222.545 120.372 222.367 120.195 222.189 120.018C219.716 117.473 218.506 113.778 219.271 110.049C219.449 109.218 219.716 108.405 220.054 107.663C221.175 105.223 223.132 103.332 225.499 102.219C226.958 101.529 228.577 101.158 230.25 101.158C230.517 101.158 230.783 101.176 231.068 101.193C231.549 101.229 232.029 101.299 232.509 101.388C232.865 101.458 233.203 101.547 233.541 101.653C234.004 101.794 234.449 101.971 234.894 102.165C235.232 102.325 235.57 102.501 235.908 102.678C239.947 105.029 242.225 109.748 241.228 114.556Z" fill="white"/>
    <path d="M173.221 103.279C173.132 103.262 173.043 103.226 172.972 103.173C172.616 102.943 172.527 102.484 172.741 102.148C177.794 94.2999 189.947 101.353 190.054 101.423C190.41 101.635 190.534 102.095 190.321 102.449C190.107 102.802 189.645 102.926 189.289 102.714C189.182 102.643 178.274 96.3327 174.004 102.961C173.844 103.209 173.524 103.332 173.221 103.279Z" fill="white"/>
    <path d="M219.022 107.999C218.826 107.964 218.666 107.84 218.541 107.681C216.922 105.206 213.47 106.32 213.435 106.32C213.043 106.443 212.616 106.231 212.492 105.842C212.367 105.454 212.58 105.029 212.972 104.906C214.556 104.375 218.025 104.11 219.823 106.868C220.054 107.221 219.947 107.681 219.591 107.893C219.413 107.999 219.218 108.034 219.022 107.999Z" fill="white"/>
    <g opacity="0.8">
        <g opacity="0.8">
            <g opacity="0.8">
                <g opacity="0.8">
                    <g opacity="0.8">
                        <g opacity="0.8">
                            <g opacity="0.8">
                                <path opacity="0.8" d="M229.734 116.36C229.342 118.233 228.968 120.001 228.595 121.662C225.161 120.832 222.687 119.152 222.972 117.756C223.274 116.377 226.228 115.776 229.734 116.36Z" fill="#D96C63"/>
                            </g>
                        </g>
                    </g>
                </g>
            </g>
        </g>
    </g>
    <path d="M206.282 106.461C205.872 108.493 204.609 109.943 203.47 109.713C202.331 109.483 201.744 107.663 202.153 105.63C202.563 103.597 203.826 102.148 204.965 102.377C206.104 102.607 206.691 104.428 206.282 106.461Z" fill="#39393B"/>
    <path d="M226.459 110.526C226.05 112.559 224.787 114.008 223.648 113.778C222.509 113.549 221.922 111.728 222.331 109.695C222.741 107.663 224.004 106.213 225.143 106.443C226.282 106.673 226.869 108.493 226.459 110.526Z" fill="#39393B"/>
    <path d="M216.032 115.97C217.011 116.164 217.705 116.129 217.758 116.129C217.99 116.111 218.221 116.005 218.381 115.828C218.541 115.651 218.595 115.404 218.577 115.174L217.278 105.718C217.207 105.258 216.78 104.922 216.317 104.993C215.854 105.064 215.516 105.488 215.587 105.947L216.744 114.379C215.89 114.255 214.609 113.901 213.452 112.947C213.096 112.646 212.545 112.699 212.242 113.053C211.94 113.407 211.993 113.954 212.349 114.255C213.612 115.28 214.983 115.757 216.032 115.97Z" fill="#39393B"/>
    <path d="M178.506 122.652C178.363 122.864 174.413 128.503 170.196 129.528C170.178 129.511 170.178 129.511 170.178 129.511C170.143 128.043 170.16 126.576 170.178 125.145C170.321 125.162 174.342 125.268 178.506 122.652Z" fill="#39393B"/>
    <path d="M177.634 107.839C177.634 107.839 171.691 95.3245 163.986 102.66C157.634 108.723 163.186 128.944 174.218 124.613L177.634 107.839Z" fill="#EA9B7A"/>
    <path d="M163.025 118.64C159.573 119.771 156.531 122.811 155.748 126.576C154.609 132.197 158.274 137.676 163.915 138.825C169.573 139.957 175.089 136.315 176.246 130.712C177.1 126.505 175.267 122.369 171.904 120.089C170.783 119.311 169.484 118.763 168.061 118.481C168.025 118.481 167.99 118.463 167.954 118.463C167.758 119.17 167.847 119.736 168.239 120.177C169.378 120.478 170.41 120.991 171.317 121.662C173.933 123.642 175.339 126.983 174.645 130.394C173.684 135.131 169.004 138.207 164.235 137.252C159.467 136.298 156.37 131.649 157.331 126.912C158.025 123.465 160.605 121.026 163.826 120.248L163.025 118.64Z" fill="#FAAF3A"/>
    <path d="M173.755 121.132C173.791 121.132 173.808 121.15 173.844 121.15C174.307 121.185 174.734 120.849 174.769 120.372C175.641 110.916 168.452 106.125 168.15 105.931C167.759 105.666 167.225 105.79 166.958 106.178C166.691 106.567 166.815 107.098 167.207 107.363C167.474 107.539 173.844 111.817 173.061 120.231C173.043 120.655 173.346 121.044 173.755 121.132Z" fill="#39393B"/>
    <path d="M166.958 114.504C167.136 114.539 167.349 114.521 167.527 114.415C168.381 113.973 170.89 112.984 172.26 113.638C172.687 113.85 173.203 113.673 173.399 113.249C173.612 112.825 173.434 112.312 173.007 112.117C170.623 110.969 167.136 112.718 166.744 112.913C166.317 113.125 166.157 113.638 166.388 114.062C166.495 114.292 166.726 114.451 166.958 114.504Z" fill="#39393B"/>
    <path d="M185.285 86.6111C185.285 86.6111 177.296 108.158 176.869 112.506C176.282 118.428 168.399 98.1358 176.317 80.8135L185.285 86.6111Z" fill="#39393B"/>
    <path d="M318.773 543.424H285.873C285.873 543.424 278.257 507.153 275.713 486.826C273.15 466.481 271.834 418.28 271.834 418.28C271.834 418.28 245.624 426.746 190.748 423.547C69.164 416.494 115.267 327.762 115.267 327.762C119.378 333.4 150.196 341.16 167.385 343.864C220.179 348.902 260.303 357.811 287.777 369.583C294.396 372.411 300.268 375.416 305.428 378.58C312.047 382.627 316.193 394.947 318.702 411.121C326.193 459.747 318.773 543.424 318.773 543.424Z" fill="#39393B"/>
    <path d="M289.948 525.961C289.396 525.961 288.916 525.572 288.791 525.024C284.04 501.692 282.456 472.651 281.175 449.319C280.108 429.964 279.111 411.687 276.602 409.495C274.574 407.71 266.157 409.106 255.517 410.856C234.325 414.356 202.296 419.623 166.993 411.475C147.759 407.02 133.613 397.741 124.965 383.883C110.036 359.985 116.851 330.343 116.922 330.042C117.065 329.406 117.705 329.017 118.346 329.176C118.986 329.318 119.378 329.954 119.218 330.59C119.146 330.873 112.581 359.596 126.993 382.663C135.303 395.973 148.951 404.899 167.545 409.195C202.403 417.255 234.147 412.023 255.161 408.558C267.741 406.49 275.339 405.235 278.204 407.745C281.3 410.467 282.172 423.83 283.56 449.195C284.841 472.456 286.424 501.392 291.14 524.565C291.264 525.201 290.855 525.82 290.214 525.943C290.108 525.943 290.037 525.961 289.948 525.961Z" fill="#585859"/>
    <path d="M319.396 526.561H319.378L282.794 525.783C282.136 525.766 281.62 525.235 281.638 524.581C281.656 523.927 282.189 523.415 282.848 523.433L319.432 524.21C320.09 524.228 320.606 524.758 320.588 525.412C320.553 526.066 320.037 526.561 319.396 526.561Z" fill="#585859"/>
    <path d="M317.866 585.299H294.645L290.179 558.237L287.723 543.425H316.567L317.03 558.237L317.866 585.299Z" fill="#EA9B7A"/>
    <path d="M317.866 585.298H294.645L291.318 565.148L290.179 558.237H317.03L317.243 565.395L317.866 585.298Z" fill="#FAAF3A"/>
    <path d="M317.243 565.395L291.318 565.148L290.179 558.237H317.03L317.243 565.395Z" fill="#C77E2E"/>
    <path d="M375.161 621.729H287.332C286.674 620.544 286.318 618.883 286.175 616.886C285.624 609.497 287.99 597.725 289.147 590.301C289.289 589.435 289.414 588.622 289.503 587.897C289.663 586.66 289.77 585.617 289.77 584.857C289.77 578.794 295.161 579.837 295.161 579.837C304.04 588.498 314.111 575.524 319.983 579.766C319.983 579.766 320.215 579.943 320.766 580.35C321.264 580.738 322.012 581.34 323.044 582.206C324.538 583.443 326.638 585.246 329.485 587.791C336.46 594.031 348.311 598.132 358.4 602.321C359.681 602.851 360.873 603.381 361.994 603.929C362.83 604.336 363.631 604.742 364.378 605.131C372.635 609.55 375.25 613.792 375.855 616.868C376.443 619.82 375.161 621.729 375.161 621.729Z" fill="#0875F7"/>
    <path d="M364.396 605.149C362.136 606.934 357.101 610.522 353.062 610.522C352.884 610.522 352.706 610.522 352.528 610.504C349.681 610.275 339.218 605.166 330.695 600.518C325.82 597.849 321.353 595.233 318.15 593.129C312.901 589.682 311.976 588.374 311.78 587.455C311.015 584.008 316.745 581.622 320.766 580.367C321.264 580.756 322.012 581.357 323.044 582.223C318.061 583.567 313.951 585.688 314.147 586.89C314.645 587.915 319.841 591.839 332.261 598.609C341.745 603.77 350.731 607.924 352.724 608.101C355.428 608.313 359.396 605.873 361.994 603.947C362.866 604.336 363.649 604.742 364.396 605.149Z" fill="#084FC7"/>
    <path d="M375.161 621.729H287.332C286.674 620.545 286.318 618.883 286.175 616.886H375.873C376.442 619.82 375.161 621.729 375.161 621.729Z" fill="#084FC7"/>
    <path d="M296.3 621.728H293.684C296.282 618.777 298.72 614.234 298.4 607.765C297.973 599.139 292.777 593.341 289.147 590.301C289.289 589.435 289.414 588.622 289.503 587.897C293.4 590.849 299.965 597.336 300.482 607.659C300.802 613.845 298.756 618.458 296.3 621.728Z" fill="#084FC7"/>
    <path d="M328.026 592.952C327.386 592.952 326.781 592.511 326.62 591.857C326.425 591.079 326.905 590.301 327.67 590.107L333.151 588.746C333.934 588.551 334.717 589.028 334.912 589.789C335.108 590.566 334.628 591.344 333.862 591.538L328.382 592.899C328.257 592.935 328.133 592.952 328.026 592.952Z" fill="white"/>
    <path d="M322.563 588.41C321.905 588.41 321.318 587.968 321.158 587.314C320.962 586.536 321.442 585.759 322.207 585.564L327.688 584.203C328.471 584.009 329.254 584.486 329.449 585.246C329.645 586.024 329.165 586.801 328.4 586.996L322.919 588.357C322.795 588.392 322.688 588.41 322.563 588.41Z" fill="white"/>
    <path d="M333.506 596.116C332.866 596.116 332.261 595.675 332.101 595.021C331.905 594.243 332.385 593.465 333.15 593.288L338.631 591.927C339.414 591.733 340.197 592.21 340.392 592.97C340.588 593.748 340.108 594.526 339.343 594.72L333.862 596.081C333.738 596.099 333.613 596.116 333.506 596.116Z" fill="white"/>
    <path d="M338.987 599.157C338.346 599.157 337.741 598.715 337.581 598.061C337.385 597.283 337.866 596.506 338.631 596.329L344.111 594.968C344.894 594.773 345.677 595.251 345.873 596.011C346.069 596.788 345.588 597.566 344.823 597.761L339.343 599.122C339.218 599.139 339.111 599.157 338.987 599.157Z" fill="white"/>
    <path d="M344.966 601.967C344.325 601.967 343.72 601.525 343.56 600.871C343.364 600.093 343.845 599.316 344.61 599.139L350.09 597.778C350.873 597.583 351.656 598.061 351.852 598.821C352.047 599.598 351.567 600.376 350.802 600.571L345.321 601.932C345.197 601.967 345.09 601.967 344.966 601.967Z" fill="white"/>
    <path d="M351.46 604.371C350.802 604.371 350.215 603.929 350.055 603.275C349.859 602.497 350.339 601.72 351.104 601.525L356.585 600.164C357.368 599.97 358.151 600.447 358.346 601.207C358.542 601.985 358.062 602.762 357.297 602.957L351.816 604.318C351.692 604.353 351.567 604.371 351.46 604.371Z" fill="white"/>
    <path d="M439.948 326.454V333.701C439.948 337.872 437.421 341.248 434.289 341.248H40.2135C37.0819 341.248 34.5552 337.872 34.5552 333.701V326.454C34.5552 322.282 37.0819 318.906 40.2135 318.906H434.272C437.403 318.906 439.948 322.282 439.948 326.454Z" fill="#21B573"/>
    <path d="M439.948 328.752H34.5552V332.075H439.948V328.752Z" fill="#217C58"/>
    <path d="M428.097 359.861H57.6868C56.032 359.861 54.6797 358.518 54.6797 356.874V341.143H431.104V356.874C431.104 358.518 429.752 359.861 428.097 359.861Z" fill="#217C58"/>
    <path d="M411.46 452.199H80.1958V465.032H411.46V452.199Z" fill="#217C58"/>
    <path d="M56.3168 624.009L120.445 359.861H97.9183L33.79 624.009H56.3168Z" fill="#21B573"/>
    <path d="M434.912 624.009L370.766 359.861H393.293L457.421 624.009H434.912Z" fill="#21B573"/>
    <path d="M70.5194 258.2L63.5718 259.257L71.6025 311.342L78.5501 310.285L70.5194 258.2Z" fill="#FAAF3A"/>
    <path d="M70.5335 258.172L63.594 259.233L65.1242 253.965L65.9072 251.226L67.4908 253.594L70.5335 258.172Z" fill="#EA9B7A"/>
    <path d="M77.9599 306.494L71.0122 307.551L71.5968 311.342L78.5445 310.285L77.9599 306.494Z" fill="#39393B"/>
    <path d="M78.5767 313.338L72.5446 314.258C72.2955 314.293 72.0464 314.116 72.0108 313.869L71.6194 311.306L78.5767 310.245L78.9682 312.808C79.0037 313.073 78.8258 313.303 78.5767 313.338Z" fill="#DF615C"/>
    <path d="M67.4913 253.594L65.1248 253.965L65.9077 251.226L67.4913 253.594Z" fill="#39393B"/>
    <path d="M77.5666 303.772L70.6189 304.829L71.0365 307.537L77.9841 306.48L77.5666 303.772Z" fill="#C77E2E"/>
    <path d="M65.7118 261.531L71.6549 300.1C71.7083 300.4 71.9752 300.595 72.2599 300.542C72.5446 300.488 72.7581 300.223 72.7047 299.941L66.7616 261.372C66.7083 261.089 66.4414 260.877 66.1567 260.93C65.872 260.965 65.6584 261.248 65.7118 261.531Z" fill="#C77E2E"/>
    <path d="M68.4342 261.124L74.3773 299.692C74.4307 299.975 74.6976 300.187 74.9823 300.134C75.2848 300.081 75.4805 299.816 75.4271 299.533L69.4841 260.965C69.4307 260.682 69.1638 260.47 68.8791 260.523C68.5944 260.558 68.3809 260.823 68.4342 261.124Z" fill="#C77E2E"/>
    <path d="M83.1164 258.41L76.0879 258.433L76.2621 311.124L83.2906 311.101L83.1164 258.41Z" fill="#21B573"/>
    <path d="M83.1139 258.42L76.0854 258.437L78.3808 253.453L79.573 250.854L80.783 253.435L83.1139 258.42Z" fill="#EA9B7A"/>
    <path d="M83.2685 307.284L76.24 307.307L76.2527 311.142L83.2812 311.119L83.2685 307.284Z" fill="#39393B"/>
    <path d="M82.8293 314.152L76.7261 314.169C76.4592 314.169 76.2634 313.957 76.2634 313.71V311.129L83.2919 311.111V313.692C83.2919 313.939 83.0962 314.152 82.8293 314.152Z" fill="#DF615C"/>
    <path d="M80.783 253.435L78.3809 253.453L79.573 250.854L80.783 253.435Z" fill="#39393B"/>
    <path d="M83.2526 304.528L76.2241 304.551L76.2331 307.291L83.2616 307.267L83.2526 304.528Z" fill="#217C58"/>
    <path d="M77.8291 261.036L77.9537 300.047C77.9537 300.347 78.2028 300.577 78.4875 300.577C78.79 300.577 79.0213 300.329 79.0213 300.047L78.8967 261.036C78.8967 260.736 78.6476 260.506 78.3629 260.506C78.0782 260.488 77.8291 260.736 77.8291 261.036Z" fill="#217C58"/>
    <path d="M80.5872 261.018L80.7117 300.028C80.7117 300.329 80.9608 300.558 81.2455 300.558C81.548 300.558 81.7793 300.311 81.7793 300.028L81.6548 261.018C81.6548 260.717 81.4057 260.487 81.121 260.487C80.8363 260.487 80.5872 260.717 80.5872 261.018Z" fill="#217C58"/>
    <path d="M88.3013 258.149L80.8435 310.319L87.8024 311.301L95.2603 259.131L88.3013 258.149Z" fill="#0875F7"/>
    <path d="M95.2493 259.162L88.292 258.172L91.2813 253.559L92.8472 251.173L93.6657 253.895L95.2493 259.162Z" fill="#EA9B7A"/>
    <path d="M88.3617 307.551L81.4028 306.569L80.8599 310.367L87.8189 311.349L88.3617 307.551Z" fill="#39393B"/>
    <path d="M86.9041 314.276L80.8721 313.427C80.6229 313.392 80.445 313.162 80.4806 312.897L80.8543 310.334L87.8116 311.324L87.4379 313.887C87.3845 314.134 87.1532 314.311 86.9041 314.276Z" fill="#DF615C"/>
    <path d="M93.6656 253.895L91.2812 253.559L92.8471 251.173L93.6656 253.895Z" fill="#39393B"/>
    <path d="M81.7801 303.826L81.3921 306.539L88.351 307.521L88.7391 304.809L81.7801 303.826Z" fill="#084FC7"/>
    <path d="M89.6442 260.983L84.1282 299.605C84.0926 299.905 84.2883 300.17 84.5908 300.206C84.8933 300.241 85.1602 300.046 85.1958 299.746L90.7118 261.124C90.7474 260.824 90.5517 260.559 90.2492 260.523C89.9645 260.488 89.6976 260.7 89.6442 260.983Z" fill="#084FC7"/>
    <path d="M92.3844 261.372L86.8684 299.994C86.8328 300.294 87.0286 300.559 87.3311 300.595C87.6336 300.63 87.9005 300.435 87.936 300.135L93.4521 261.513C93.4877 261.213 93.2919 260.948 92.9894 260.912C92.6869 260.877 92.42 261.071 92.3844 261.372Z" fill="#084FC7"/>
    <path d="M97.5447 279.26L97.171 282.088L96.8329 284.651L96.3347 288.54L95.9966 291.085L95.4984 295.009L95.1603 297.519L94.6443 301.478L94.324 303.953L93.808 307.948L93.4877 310.387L92.9717 314.417L92.6514 316.821L92.3845 318.907H64.7332L64.4663 316.821L64.146 314.417L63.63 310.387L63.3097 307.948L62.7937 303.953L62.4734 301.478L61.9574 297.519L61.6371 295.009L61.1211 291.085L60.8008 288.54L60.2848 284.651L59.9467 282.088L59.5908 279.26H97.5447Z" fill="#DF615C"/>
    <path d="M97.1711 282.088L96.833 284.651H60.2848L59.9468 282.088H97.1711Z" fill="#B11722"/>
    <path d="M96.3347 288.54L95.9966 291.085H61.1211L60.8008 288.54H96.3347Z" fill="#B11722"/>
    <path d="M95.4985 295.009L95.1604 297.519H61.9575L61.6372 295.009H95.4985Z" fill="#B11722"/>
    <path d="M94.6443 301.479L94.324 303.953H62.7937L62.4734 301.479H94.6443Z" fill="#B11722"/>
    <path d="M93.8081 307.947L93.4878 310.387H63.6301L63.3098 307.947H93.8081Z" fill="#B11722"/>
    <path d="M92.9717 314.417L92.6514 316.821H64.4663L64.146 314.417H92.9717Z" fill="#B11722"/>
    <path d="M437.652 178.826L414.076 277.881L413.453 280.479L411.869 287.143C411.175 290.042 408.595 292.075 405.606 292.075H246.762C242.598 292.075 239.538 288.221 240.499 284.209L266.282 175.874C266.976 172.993 269.556 170.96 272.545 170.96H431.371C435.535 170.96 438.595 174.813 437.652 178.826Z" fill="#39393B"/>
    <path d="M414.058 277.863L413.453 280.479H248.524V277.863H414.058Z" fill="#585859"/>
    <path d="M310.766 195.459C309.449 202.476 302.652 208.168 295.588 208.168C288.524 208.168 283.862 202.476 285.179 195.459C286.495 188.442 293.292 182.75 300.357 182.75C307.438 182.75 312.083 188.442 310.766 195.459Z" fill="#FAAF3A"/>
    <path d="M296.317 193.038C296.051 194.434 295.339 195.583 294.734 195.583C294.111 195.583 293.826 194.452 294.093 193.038C294.36 191.641 295.072 190.492 295.677 190.492C296.3 190.492 296.584 191.623 296.317 193.038Z" fill="#39393B"/>
    <path d="M302.99 193.038C302.723 194.434 302.011 195.583 301.406 195.583C300.801 195.583 300.499 194.452 300.766 193.038C301.033 191.641 301.744 190.492 302.349 190.492C302.972 190.492 303.257 191.623 302.99 193.038Z" fill="#39393B"/>
    <path d="M296.922 201.663C291.424 201.663 291.193 196.201 291.193 196.148C291.175 195.848 291.424 195.547 291.744 195.494C292.065 195.423 292.314 195.618 292.332 195.918C292.332 196.113 292.545 200.567 297.154 200.567C301.744 200.567 303.631 196.113 303.72 195.918C303.844 195.618 304.182 195.441 304.467 195.494C304.752 195.565 304.894 195.848 304.769 196.148C304.716 196.183 302.421 201.663 296.922 201.663Z" fill="#39393B"/>
    <path d="M384.2 254.815C384.343 261.39 395.553 269.627 395.553 269.627C395.553 269.627 408.577 261.39 410.161 254.815C411.869 247.691 403.684 245.499 397.617 250.873C392.723 245.499 384.04 247.691 384.2 254.815Z" fill="#DF615C"/>
    <path d="M360.464 235.742C359.698 242.565 353.524 248.08 346.674 248.08C339.823 248.08 334.859 242.547 335.624 235.742C336.389 228.919 342.563 223.404 349.414 223.404C356.282 223.404 361.229 228.937 360.464 235.742Z" fill="#585859"/>
    <path d="M278.844 170.96L251.389 292.075H246.762C242.598 292.075 239.538 288.221 240.499 284.209L266.282 175.874C266.976 172.993 269.556 170.942 272.545 170.942H278.844V170.96Z" fill="#585859"/>
    <path d="M324.841 292.075L320.019 318.995H335.944L340.766 292.075H324.841Z" fill="white"/>
    <path d="M296.211 314.364L299.467 309.821C300.623 308.195 302.51 307.24 304.52 307.24H348.15C350.463 307.24 352.581 308.513 353.649 310.546L355.837 314.717C356.869 316.661 355.446 319.012 353.221 319.012H298.613C296.211 318.995 294.823 316.29 296.211 314.364Z" fill="white"/>
    <path d="M205.303 318.977H336.371L337.794 314.063C338.684 310.97 336.353 307.895 333.115 307.895H212.171C210.001 307.895 208.097 309.326 207.492 311.394L205.303 318.977Z" fill="white"/>
    <path d="M377.154 138.614L319.182 138.578C316.94 138.578 315.107 136.758 315.107 134.53L315.125 99.1435C315.125 96.9163 316.958 95.0957 319.2 95.0957L377.172 95.1311C379.414 95.1311 381.246 96.9517 381.246 99.1788L381.229 134.566C381.229 136.811 379.414 138.614 377.154 138.614Z" fill="#DF615C"/>
    <path d="M373.702 132.091L368.417 151.923L359.182 133.275L373.702 132.091Z" fill="#DF615C"/>
    <path d="M362.83 113.655C361.655 121.079 347.687 130.377 347.687 130.377C347.687 130.377 334.253 121.062 333.488 113.62C332.652 105.56 342.26 103.103 348.292 109.183C354.645 103.121 364.111 105.595 362.83 113.655Z" fill="white"/>
    <path d="M418.234 601.603C472.755 601.603 516.953 597.266 516.953 591.917C516.953 586.567 472.755 582.23 418.234 582.23C363.713 582.23 319.515 586.567 319.515 591.917C319.515 597.266 363.713 601.603 418.234 601.603Z" fill="#CED3E6"/>
    <path d="M478.679 521.868H354.052C351.686 521.868 349.764 519.959 349.764 517.608V515.646C349.764 513.295 351.686 511.386 354.052 511.386H478.679C481.045 511.386 482.967 513.295 482.967 515.646V517.608C482.967 519.959 481.045 521.868 478.679 521.868Z" fill="#39393B"/>
    <path d="M355.618 395.273H477.38C479.408 395.273 481.045 396.9 481.045 398.915V413.78C481.045 415.795 479.408 417.421 477.38 417.421H355.618C353.589 417.421 351.952 415.795 351.952 413.78V398.915C351.952 396.9 353.589 395.273 355.618 395.273Z" fill="#585859"/>
    <path d="M384.373 301.062C384.373 301.062 333.038 290.987 318.714 255.405C304.39 219.824 356.775 193.134 384.373 212.241C413.91 232.674 384.373 301.062 384.373 301.062Z" fill="#21B573"/>
    <path d="M414.907 394.549C414.462 394.549 414.052 394.213 413.981 393.754C409.07 360.7 389.23 313.152 373.483 279.091C356.383 242.148 340.262 212.665 340.102 212.365C339.853 211.923 340.031 211.357 340.476 211.11C340.921 210.862 341.49 211.039 341.739 211.481C341.899 211.781 358.056 241.318 375.191 278.313C391.01 312.498 410.903 360.223 415.85 393.489C415.921 394.001 415.583 394.461 415.067 394.531C414.996 394.531 414.942 394.549 414.907 394.549Z" fill="#39393B"/>
    <path d="M382.451 297.615C382.113 297.615 381.792 297.439 381.632 297.138C359.301 255.83 323.038 225.852 322.682 225.551C322.291 225.233 322.237 224.65 322.557 224.261C322.878 223.872 323.465 223.819 323.856 224.137C324.23 224.438 360.76 254.628 383.269 296.272C383.518 296.714 383.34 297.28 382.896 297.527C382.735 297.58 382.593 297.615 382.451 297.615Z" fill="#39393B"/>
    <path d="M383.465 300.585C383.198 300.585 382.949 300.479 382.753 300.267C366.472 281.23 349.782 269.387 338.661 262.812C326.597 255.688 318.287 253.019 318.216 253.002C317.735 252.842 317.451 252.33 317.611 251.835C317.771 251.358 318.287 251.075 318.785 251.234C319.123 251.34 327.344 253.956 339.568 261.185C350.832 267.832 367.718 279.816 384.177 299.065C384.515 299.454 384.462 300.037 384.07 300.373C383.892 300.514 383.661 300.585 383.465 300.585Z" fill="#39393B"/>
    <path d="M378.945 289.75C378.554 289.75 378.198 289.502 378.074 289.131C365.547 252.63 370.155 208.282 370.209 207.84C370.262 207.327 370.725 206.974 371.223 207.027C371.739 207.08 372.095 207.539 372.041 208.034C371.988 208.476 367.433 252.436 379.817 288.53C379.977 289.007 379.728 289.537 379.23 289.696C379.141 289.732 379.034 289.75 378.945 289.75Z" fill="#39393B"/>
    <path d="M382.095 296.979C381.65 296.979 381.259 296.661 381.187 296.201C377.362 273.099 380.298 254.256 383.447 242.52C386.864 229.775 391.134 222.599 391.312 222.298C391.579 221.857 392.148 221.715 392.593 221.98C393.038 222.245 393.18 222.811 392.913 223.253C392.878 223.324 388.572 230.553 385.227 243.085C382.148 254.627 379.266 273.187 383.02 295.918C383.109 296.413 382.753 296.89 382.255 296.979C382.184 296.961 382.13 296.979 382.095 296.979Z" fill="#39393B"/>
    <path d="M438.519 310.359C438.519 310.359 490.369 303.306 506.793 268.644C523.216 233.964 472.504 204.251 443.821 221.697C413.109 240.363 438.519 310.359 438.519 310.359Z" fill="#21B573"/>
    <path d="M418.857 391.526C418.34 391.526 417.913 391.102 417.931 390.59C418.127 373.568 421.864 354.178 429.034 332.967C434.764 316.015 442.664 297.862 452.558 279.02C469.373 246.938 486.312 223.624 486.49 223.394C486.793 222.988 487.38 222.882 487.789 223.182C488.198 223.483 488.305 224.066 488.003 224.472C487.842 224.702 470.974 247.928 454.212 279.886C438.768 309.352 420.262 352.463 419.817 390.607C419.782 391.12 419.373 391.526 418.857 391.526Z" fill="#39393B"/>
    <path d="M440.707 307.037C440.547 307.037 440.369 307.001 440.227 306.895C439.782 306.63 439.657 306.064 439.924 305.623C464.871 265.375 503.145 237.376 503.536 237.094C503.946 236.793 504.533 236.881 504.835 237.288C505.138 237.694 505.049 238.278 504.64 238.578C504.266 238.861 466.277 266.647 441.526 306.577C441.33 306.878 441.027 307.037 440.707 307.037Z" fill="#39393B"/>
    <path d="M439.515 309.935C439.284 309.935 439.052 309.847 438.875 309.688C438.501 309.334 438.483 308.751 438.839 308.38C456.437 290.121 473.999 279.162 485.636 273.187C498.27 266.7 506.615 264.562 506.971 264.473C507.469 264.349 507.967 264.65 508.092 265.145C508.216 265.64 507.914 266.135 507.416 266.258C507.327 266.276 498.875 268.45 486.419 274.849C474.924 280.753 457.576 291.605 440.173 309.652C440.013 309.829 439.764 309.935 439.515 309.935Z" fill="#39393B"/>
    <path d="M444.675 299.383C444.551 299.383 444.444 299.365 444.319 299.312C443.839 299.118 443.625 298.587 443.803 298.11C458.323 262.794 456.383 218.657 456.366 218.216C456.348 217.703 456.739 217.279 457.255 217.243C457.753 217.208 458.198 217.615 458.234 218.127C458.252 218.569 460.209 263.112 445.547 298.817C445.387 299.171 445.049 299.383 444.675 299.383Z" fill="#39393B"/>
    <path d="M441.099 306.417C441.027 306.417 440.956 306.417 440.885 306.4C440.387 306.294 440.066 305.799 440.191 305.304C445.316 282.82 443.536 264.137 441.152 252.435C438.554 239.744 434.711 232.267 434.675 232.179C434.444 231.719 434.622 231.171 435.066 230.942C435.529 230.712 436.081 230.889 436.312 231.331C436.472 231.631 440.298 239.055 442.949 251.994C445.387 263.907 447.202 282.891 442.006 305.71C441.917 306.117 441.526 306.417 441.099 306.417Z" fill="#39393B"/>
    <path d="M418.554 243.262C418.554 243.262 374.622 215.016 374.568 176.695C374.515 138.374 433.127 132.859 451.65 160.751C471.49 190.606 418.554 243.262 418.554 243.262Z" fill="#21B573"/>
    <path d="M412.415 341.381C412.344 341.381 412.273 341.381 412.202 341.363C411.703 341.239 411.401 340.744 411.508 340.249C419.266 307.744 418.572 256.272 416.632 218.834C414.533 178.233 410.529 144.896 410.493 144.578C410.44 144.066 410.796 143.606 411.312 143.553C411.81 143.5 412.29 143.854 412.344 144.366C412.379 144.702 416.383 178.092 418.5 218.746C420.458 256.307 421.134 307.956 413.34 340.674C413.216 341.098 412.842 341.381 412.415 341.381Z" fill="#39393B"/>
    <path d="M418.394 239.426C417.931 239.426 417.522 239.073 417.468 238.613C412.13 192.02 389.621 150.835 389.39 150.429C389.141 149.987 389.301 149.421 389.764 149.174C390.209 148.926 390.778 149.085 391.027 149.545C391.258 149.952 413.945 191.454 419.319 238.419C419.372 238.932 419.017 239.391 418.501 239.444C418.465 239.426 418.429 239.426 418.394 239.426Z" fill="#39393B"/>
    <path d="M418.234 242.537C417.842 242.537 417.486 242.29 417.362 241.901C409.337 218.216 398.251 201.088 390.369 190.889C381.828 179.824 375.102 174.309 375.031 174.256C374.639 173.938 374.568 173.354 374.906 172.965C375.226 172.577 375.814 172.506 376.205 172.842C376.49 173.071 383.127 178.516 391.792 189.722C399.782 200.045 410.992 217.367 419.106 241.318C419.266 241.795 419.017 242.325 418.518 242.484C418.429 242.52 418.34 242.537 418.234 242.537Z" fill="#39393B"/>
    <path d="M418.074 230.818C418.056 230.818 418.038 230.818 418.02 230.818C417.504 230.801 417.113 230.359 417.148 229.846C419.123 191.348 439.942 151.843 440.138 151.436C440.387 150.977 440.938 150.818 441.401 151.048C441.864 151.277 442.024 151.843 441.793 152.303C441.579 152.691 420.956 191.843 419.017 229.935C418.981 230.43 418.572 230.818 418.074 230.818Z" fill="#39393B"/>
    <path d="M418.305 238.684C418.234 238.684 418.18 238.684 418.109 238.666C417.611 238.56 417.291 238.065 417.397 237.57C422.451 214.698 432.237 198.153 439.568 188.29C447.522 177.579 454.177 172.364 454.462 172.152C454.871 171.834 455.458 171.905 455.761 172.311C456.081 172.718 456.01 173.301 455.6 173.602C455.529 173.655 448.821 178.922 441.01 189.439C433.803 199.143 424.177 215.44 419.212 237.959C419.124 238.401 418.732 238.684 418.305 238.684Z" fill="#39393B"/>
    <path d="M472.237 336.431L470.707 340.461L469.746 343.024L466.971 350.342L465.992 352.905L463.145 360.435L462.184 362.98L449.942 395.256H383.074L370.832 362.98L369.871 360.435L367.024 352.905L366.045 350.342L363.269 343.024L362.308 340.461L360.778 336.431C359.728 333.656 361.792 330.704 364.764 330.704H468.269C471.223 330.704 473.287 333.656 472.237 336.431Z" fill="#0875F7"/>
    <path d="M470.707 340.461L469.746 343.024H363.269L362.291 340.461H470.707Z" fill="#084FC7"/>
    <path d="M466.953 350.342L465.992 352.905H367.006L366.045 350.342H466.953Z" fill="#084FC7"/>
    <path d="M463.127 360.435L462.166 362.98H370.832L369.871 360.435H463.127Z" fill="#084FC7"/>
    <path d="M398.59 417.403L394.889 429.281L343.269 594.55H333.18L365.903 432.658L368.999 417.403H398.59Z" fill="#39393B"/>
    <path d="M500.12 594.55H490.031L436.899 424.385L434.711 417.403H464.302L465.049 421.115L500.12 594.55Z" fill="#39393B"/>
    <path d="M478.679 499.084H354.052C351.686 499.084 349.764 497.175 349.764 494.824V492.862C349.764 490.511 351.686 488.602 354.052 488.602H478.661C481.028 488.602 482.949 490.511 482.949 492.862V494.824C482.967 497.175 481.045 499.084 478.679 499.084Z" fill="#585859"/>
    <path d="M321.703 101.744C348.354 101.744 369.959 80.5509 369.959 54.4081C369.959 28.2652 348.354 7.07227 321.703 7.07227C295.051 7.07227 273.446 28.2652 273.446 54.4081C273.446 80.5509 295.051 101.744 321.703 101.744Z" fill="#CED3E6"/>
    <path d="M321.703 95.5925C348.354 95.5925 369.959 74.3995 369.959 48.2567C369.959 22.1139 348.354 0.920898 321.703 0.920898C295.051 0.920898 273.446 22.1139 273.446 48.2567C273.446 74.3995 295.051 95.5925 321.703 95.5925Z" fill="#0875F7"/>
    <path d="M321.703 86.7368C343.362 86.7368 360.92 69.5086 360.92 48.2566C360.92 27.0046 343.362 9.77637 321.703 9.77637C300.044 9.77637 282.486 27.0046 282.486 48.2566C282.486 69.5086 300.044 86.7368 321.703 86.7368Z" fill="white"/>
    <path d="M360.92 48.2566C360.92 49.2818 360.884 50.2893 360.795 51.2968C359.212 31.4999 342.272 15.8568 321.685 15.8568C301.098 15.8568 284.176 31.4999 282.574 51.2968C282.503 50.2893 282.45 49.2818 282.45 48.2566C282.45 27.028 300.048 9.77637 321.667 9.77637C343.322 9.77637 360.92 27.028 360.92 48.2566Z" fill="#CED3E6"/>
    <path d="M321.703 52.2514C321.4 52.2514 321.098 52.11 320.92 51.8625L301.685 26.4447C301.365 26.0205 301.454 25.4195 301.881 25.1014C302.308 24.7832 302.93 24.8716 303.251 25.2958L322.023 50.095L343.358 40.9035C343.856 40.6914 344.425 40.9035 344.657 41.3985C344.87 41.8934 344.657 42.459 344.158 42.6711L322.112 52.163C321.97 52.2337 321.827 52.2514 321.703 52.2514Z" fill="#39393B"/>
</svg>
